<?xml version="1.0" standalone="no"?>
<!DOCTYPE svg PUBLIC "-//W3C//DTD SVG 20010904//EN"
 "http://www.w3.org/TR/2001/REC-SVG-20010904/DTD/svg10.dtd">
<svg version="1.0" xmlns="http://www.w3.org/2000/svg"
 width="256.000000pt" height="256.000000pt" viewBox="0 0 256.000000 256.000000"
 preserveAspectRatio="xMidYMid meet">

<g transform="translate(0.000000,256.000000) scale(0.100000,-0.100000)"
fill="#000000" stroke="none">
<path d="M0 1280 l0 -1280 394 0 394 0 11 28 11 27 -5 -27 -5 -28 880 0 880 0
0 1280 0 1280 -1280 0 -1280 0 0 -1280z m1770 992 c0 -4 -9 -8 -20 -9 -11 -1
-20 2 -20 8 0 5 9 9 20 9 11 0 20 -4 20 -8z m170 -21 c0 -12 -57 -19 -71 -10
-8 4 -3 9 12 11 48 7 59 7 59 -1z m-240 -81 c0 -5 -8 -10 -17 -10 -15 0 -16 2
-3 10 19 12 20 12 20 0z m-535 -19 c3 -6 -3 -9 -14 -8 -11 0 -17 5 -15 9 7 11
22 10 29 -1z m640 -1 c3 -5 1 -10 -4 -10 -6 0 -11 5 -11 10 0 6 2 10 4 10 3 0
8 -4 11 -10z m-1055 -10 c0 -5 -4 -10 -10 -10 -5 0 -10 5 -10 10 0 6 5 10 10
10 6 0 10 -4 10 -10z m169 1 c23 -6 25 -10 22 -71 -1 -36 -5 -68 -9 -72 -4 -4
-6 12 -4 35 5 55 -12 97 -38 97 -11 0 -20 -4 -20 -10 0 -5 -7 -10 -15 -10 -13
0 -13 3 -3 20 13 21 26 23 67 11z m71 -31 c0 -5 -5 -10 -11 -10 -5 0 -7 5 -4
10 3 6 8 10 11 10 2 0 4 -4 4 -10z m-235 -20 c18 -8 17 -9 -7 -9 -15 -1 -30 4
-33 9 -7 12 12 12 40 0z m714 -27 c0 -21 -3 -32 -6 -25 -2 6 -12 12 -21 12
-15 1 -15 2 1 11 9 5 17 17 17 24 0 8 2 15 5 15 3 0 5 -17 4 -37z m-186 -3 c3
-11 1 -20 -4 -20 -5 0 -9 9 -9 20 0 11 2 20 4 20 2 0 6 -9 9 -20z m37 0 c0 -5
-5 -10 -11 -10 -5 0 -7 5 -4 10 3 6 8 10 11 10 2 0 4 -4 4 -10z m66 -17 c-8
-8 -36 5 -36 17 0 7 6 7 21 0 11 -7 18 -14 15 -17z m29 17 c3 -5 2 -10 -4 -10
-5 0 -13 5 -16 10 -3 6 -2 10 4 10 5 0 13 -4 16 -10z m-348 -6 c-3 -3 -12 -4
-19 -1 -8 3 -5 6 6 6 11 1 17 -2 13 -5z m180 0 c-3 -3 -12 -4 -19 -1 -8 3 -5
6 6 6 11 1 17 -2 13 -5z m498 -4 c3 -6 -1 -7 -9 -4 -18 7 -21 14 -7 14 6 0 13
-4 16 -10z m-955 -16 c0 -2 -9 -4 -21 -4 -11 0 -18 4 -14 10 5 8 35 3 35 -6z
m-329 -37 c-16 -16 -20 -5 -8 23 9 22 11 23 14 6 3 -10 0 -23 -6 -29z m279 33
c0 -5 -7 -7 -15 -4 -8 4 -15 8 -15 10 0 2 7 4 15 4 8 0 15 -4 15 -10z m697
-11 c7 -6 10 -15 7 -20 -3 -5 2 -9 10 -9 9 0 13 -6 10 -13 -4 -12 68 -210 86
-232 4 -5 19 -44 33 -85 30 -87 148 -378 162 -400 6 -8 15 -33 21 -55 17 -58
113 -288 123 -295 5 -3 11 -19 14 -35 6 -37 44 -124 64 -147 9 -10 13 -23 10
-31 -2 -7 4 -30 14 -52 10 -21 17 -41 14 -43 -3 -3 -41 -4 -85 -4 -53 1 -80
-2 -80 -9 0 -8 -6 -7 -17 2 -15 13 -15 11 -9 -25 6 -33 5 -38 -8 -33 -12 5
-16 0 -16 -19 0 -14 4 -23 9 -20 10 6 21 -63 13 -78 -8 -15 -19 16 -33 94 -11
64 -14 70 -20 45 -7 -30 -7 -30 -8 -3 -3 63 -30 31 -32 -37 0 -26 -2 -27 -9
-10 -5 11 -9 34 -9 50 -1 23 2 26 9 15 8 -13 10 -12 10 3 0 12 -8 17 -25 17
-22 0 -25 -4 -25 -35 0 -19 -5 -35 -11 -35 -6 0 -8 8 -4 19 3 12 0 23 -8 28
-23 13 -34 45 -36 103 -3 71 -38 180 -53 165 -2 -3 -4 5 -4 17 1 14 -6 24 -18
26 -18 4 -19 -1 -13 -56 5 -48 3 -61 -8 -66 -12 -4 -15 7 -16 62 0 47 -3 61
-9 47 -7 -17 -9 -17 -9 -2 -1 15 -17 17 -182 17 l-181 0 5 -26 c2 -14 -1 -31
-8 -38 -11 -11 -36 -102 -49 -181 -20 -122 -57 -309 -61 -313 -2 -2 -10 7 -19
20 -14 22 -14 31 9 118 13 52 29 122 36 154 8 42 14 55 20 45 6 -9 7 2 3 29
-5 35 -4 42 10 42 9 0 16 7 16 15 0 8 -4 15 -9 15 -6 0 -5 14 0 36 6 19 9 47
6 62 l-3 27 -15 -33 c-9 -18 -19 -29 -24 -25 -4 5 -3 -2 4 -14 15 -29 14 -38
-3 -24 -12 10 -14 8 -10 -11 4 -18 3 -20 -5 -7 -13 21 7 107 21 87 8 -10 9
-10 5 2 -8 30 -40 16 -53 -23 -9 -26 -10 -35 -2 -31 8 5 9 1 4 -11 -4 -11 -2
-22 6 -27 9 -5 3 -8 -16 -8 -24 0 -27 -3 -22 -20 19 -63 19 -63 6 -55 -10 6
-12 1 -7 -21 l6 -29 -13 28 c-18 39 -27 22 -10 -18 18 -43 18 -66 0 -99 -13
-25 -14 -25 -19 -6 -3 12 -1 18 5 14 7 -4 8 5 3 27 -5 27 -4 31 5 19 9 -12 10
-9 5 15 -3 17 -11 35 -17 40 -7 7 -9 3 -5 -13 3 -12 1 -20 -4 -16 -5 3 -9 -2
-9 -10 0 -12 -11 -16 -50 -16 -41 0 -51 -4 -62 -22 -7 -13 -11 -26 -10 -30 1
-5 -3 -8 -8 -8 -6 0 -13 14 -17 30 -6 30 -7 31 -62 29 -85 -4 -87 -5 -116 -77
-14 -36 -33 -75 -42 -86 -18 -24 -16 -17 27 82 17 41 29 77 25 80 -9 9 -40
-14 -38 -27 2 -6 -2 -11 -8 -11 -5 0 -7 -5 -3 -11 3 -6 2 -14 -3 -18 -15 -10
-53 -77 -53 -93 0 -8 -7 -23 -16 -34 -15 -18 -15 -18 -9 9 3 18 2 26 -4 23 -5
-4 -9 3 -8 14 1 11 5 20 9 20 4 0 8 9 8 19 0 28 11 52 21 45 5 -3 9 6 9 21 0
14 7 28 15 31 8 4 15 17 15 30 0 13 5 24 10 24 6 0 10 11 10 25 0 14 5 25 10
25 6 0 10 8 10 18 0 9 7 26 15 36 15 20 15 20 15 0 0 -16 2 -17 10 -4 5 8 10
30 10 48 0 18 5 32 12 32 6 0 8 3 5 7 -4 3 -2 12 3 18 8 9 4 14 -16 19 -14 4
-27 6 -28 4 -1 -2 -8 -14 -14 -28 -7 -14 -10 -17 -8 -7 4 12 -1 17 -17 18 -21
1 -21 1 3 9 22 7 21 8 -12 9 -21 1 -38 6 -38 11 0 15 31 25 39 14 3 -6 24 -10
46 -11 38 -2 38 -1 10 7 l-30 8 30 1 c53 2 74 12 84 42 9 27 8 29 -17 31 -43
2 -47 3 -51 13 -2 5 4 14 13 20 12 7 19 6 26 -5 8 -13 10 -13 10 2 0 11 10 18
27 20 23 2 31 12 50 63 13 33 31 75 40 94 12 26 12 35 3 41 -15 9 -5 30 15 30
7 0 19 17 26 38 6 20 27 71 45 113 19 43 35 88 36 100 2 13 9 29 16 35 8 5 15
22 15 36 1 15 4 24 6 22 3 -3 38 79 79 181 58 148 71 189 62 201 -7 7 -15 12
-19 10 -4 -3 -13 -1 -21 5 -12 7 -10 9 8 9 13 0 20 4 17 10 -8 13 1 13 25 0
14 -8 21 -6 27 4 4 8 26 16 48 18 77 6 249 -3 262 -13z m773 6 c0 -8 -4 -15
-10 -15 -5 0 -10 7 -10 15 0 8 5 15 10 15 6 0 10 -7 10 -15z m-455 -4 c3 -5 2
-12 -3 -15 -5 -3 -9 1 -9 9 0 17 3 19 12 6z m-1329 -51 c8 0 14 -4 14 -10 0
-5 -10 -8 -22 -7 -17 3 -23 12 -25 38 -2 34 -2 34 8 7 6 -16 17 -28 25 -28z
m149 40 c3 -5 2 -10 -4 -10 -5 0 -13 5 -16 10 -3 6 -2 10 4 10 5 0 13 -4 16
-10z m1242 -54 c0 -7 -6 -13 -14 -13 -7 0 -11 3 -8 5 3 3 0 11 -6 19 -6 7 -8
13 -4 13 4 0 1 8 -6 18 -7 9 -2 7 12 -6 14 -12 26 -28 26 -36z m-152 34 c-3
-5 -14 -10 -23 -9 -14 0 -13 2 3 9 27 11 27 11 20 0z m55 -10 c0 -5 -8 -10
-17 -10 -15 0 -16 2 -3 10 19 12 20 12 20 0z m-700 -4 c0 -3 -4 -8 -10 -11 -5
-3 -10 -1 -10 4 0 6 5 11 10 11 6 0 10 -2 10 -4z m566 -14 c-7 -11 -64 -14
-70 -3 -3 5 12 9 34 9 22 1 38 -2 36 -6z m196 -46 c6 4 8 3 5 -3 -4 -6 0 -14
9 -17 8 -3 13 -10 9 -15 -3 -5 -1 -12 5 -16 5 -3 10 -11 10 -18 0 -6 -6 -2
-14 8 -8 11 -12 23 -10 27 3 4 -2 5 -11 2 -14 -6 -14 -8 0 -24 17 -18 19 -30
7 -30 -5 0 -14 11 -20 25 -7 14 -20 25 -31 25 -10 0 -21 7 -25 15 -4 11 -13
14 -31 9 -15 -4 -25 -2 -25 5 0 13 46 15 54 2 7 -11 56 -21 56 -10 0 4 -4 11
-10 14 -5 3 -10 12 -10 18 0 7 5 4 11 -6 6 -9 15 -14 21 -11z m-1547 -17 c12
-19 -5 -23 -22 -6 -16 16 -16 17 -1 17 9 0 20 -5 23 -11z m1468 -13 c4 -10 1
-13 -8 -9 -8 3 -12 9 -9 14 7 12 11 11 17 -5z m161 -1 c-4 -8 -8 -15 -10 -15
-2 0 -4 7 -4 15 0 8 4 15 10 15 5 0 7 -7 4 -15z m-194 -5 c0 -5 -12 -10 -27
-9 -25 0 -26 1 -8 9 27 12 35 12 35 0z m-710 -10 c0 -5 -4 -10 -10 -10 -5 0
-10 5 -10 10 0 6 5 10 10 10 6 0 10 -4 10 -10z m-53 -26 c-3 -3 -12 -4 -19 -1
-8 3 -5 6 6 6 11 1 17 -2 13 -5z m827 -3 c4 -5 1 -11 -4 -13 -7 -2 -5 -17 5
-42 9 -21 14 -41 11 -44 -3 -3 -6 0 -6 7 0 7 -4 10 -9 7 -5 -3 -15 2 -22 12
-13 15 -12 16 4 3 15 -12 17 -11 17 3 0 15 -15 20 -52 17 -9 -1 -19 3 -23 9
-5 8 3 10 24 7 22 -4 31 -1 31 9 0 9 -12 14 -32 15 l-33 2 35 7 c19 4 38 8 42
9 4 0 9 -3 12 -8z m93 -51 c12 0 13 -3 4 -13 -6 -8 -8 -16 -5 -20 3 -3 -4 -3
-16 0 -14 4 -18 8 -10 13 9 6 9 9 1 14 -6 4 -8 12 -4 19 5 8 8 8 11 -1 2 -7
11 -12 19 -12z m143 -77 c0 -9 -3 -13 -7 -10 -3 4 -12 2 -20 -4 -10 -9 -13 -7
-13 10 0 14 6 21 20 21 12 0 20 -7 20 -17z m-182 -28 c3 -3 -4 -4 -16 -2 -12
2 -24 6 -28 10 -4 3 4 4 16 2 12 -2 25 -7 28 -10z m42 -7 c0 -18 -2 -20 -9 -8
-6 8 -7 18 -5 22 9 14 14 9 14 -14z m-1277 -25 c-7 -2 -19 -2 -25 0 -7 3 -2 5
12 5 14 0 19 -2 13 -5z m307 -23 c0 -5 -8 -10 -17 -10 -15 0 -16 2 -3 10 19
12 20 12 20 0z m1428 -10 c7 -11 11 -20 9 -20 -2 0 -12 9 -22 20 -10 11 -14
20 -9 20 5 0 15 -9 22 -20z m-530 -17 c-10 -2 -26 -2 -35 0 -10 3 -2 5 17 5
19 0 27 -2 18 -5z m140 0 c-10 -2 -26 -2 -35 0 -10 3 -2 5 17 5 19 0 27 -2 18
-5z m182 -3 c0 -7 -16 -9 -40 -7 -58 6 -62 17 -7 17 26 0 47 -5 47 -10z m193
-2 c15 -11 11 -13 -28 -13 -25 0 -45 3 -45 6 0 22 47 26 73 7z m-477 -20 c4
-5 -13 -8 -37 -8 -25 0 -39 4 -32 8 16 10 59 10 69 0z m-31 -38 c16 -7 14 -9
-15 -9 -19 0 -42 4 -50 9 -11 7 -8 10 15 9 17 0 39 -4 50 -9z m38 -10 c-3 -11
-7 -20 -9 -20 -2 0 -4 9 -4 20 0 11 4 20 9 20 5 0 7 -9 4 -20z m-953 -18 c0
-5 -7 -9 -15 -9 -8 0 -12 4 -9 9 3 4 9 8 15 8 5 0 9 -4 9 -8z m1004 -74 c-3
-4 0 -16 5 -26 8 -14 6 -19 -4 -19 -8 0 -17 8 -20 17 -4 12 -14 16 -38 13 -26
-3 -28 -1 -12 6 11 5 30 10 42 10 17 1 21 6 17 19 -5 14 -4 14 4 2 6 -8 9 -18
6 -22z m-77 -34 c-3 -3 -12 -4 -19 -1 -8 3 -5 6 6 6 11 1 17 -2 13 -5z m35
-51 c17 6 66 -28 55 -39 -4 -4 -7 -2 -7 5 0 8 -5 7 -16 -4 -13 -12 -19 -13
-30 -4 -8 7 -17 9 -21 5 -3 -3 -1 -6 6 -6 7 0 10 -4 7 -9 -6 -10 40 -25 53
-17 4 3 8 -13 9 -35 2 -21 1 -39 -1 -39 -17 0 -67 35 -67 47 0 11 -6 14 -24 9
-21 -5 -24 -3 -21 14 2 11 0 22 -6 25 -15 10 -10 22 11 28 11 3 20 13 20 24 0
14 2 15 9 4 5 -8 15 -11 23 -8z m298 3 c0 -2 -7 -7 -16 -10 -8 -3 -12 -2 -9 4
6 10 25 14 25 6z m353 -40 c-3 -4 -9 -2 -14 5 -13 22 -11 31 5 17 8 -7 12 -17
9 -22z m-1716 8 c-3 -3 -12 -4 -19 -1 -8 3 -5 6 6 6 11 1 17 -2 13 -5z m1423
-3 c0 -5 -9 -7 -20 -4 -11 3 -20 7 -20 9 0 2 9 4 20 4 11 0 20 -4 20 -9z m257
-7 c-3 -3 -12 -4 -19 -1 -8 3 -5 6 6 6 11 1 17 -2 13 -5z m-2370 -88 c-13 -14
-16 -13 -22 11 -8 33 16 52 29 23 6 -13 4 -24 -7 -34z m83 29 c7 -14 10 -28 7
-32 -4 -3 -7 1 -7 10 0 10 -5 17 -11 17 -5 0 -7 -4 -4 -10 3 -5 1 -10 -4 -10
-6 0 -11 7 -11 15 0 8 -7 15 -16 15 -8 0 -12 5 -9 10 11 18 41 10 55 -15z
m307 19 c-3 -3 -12 -4 -19 -1 -8 3 -5 6 6 6 11 1 17 -2 13 -5z m-177 -34 c12
-8 12 -10 -3 -16 -9 -3 -15 -9 -13 -13 2 -3 0 -15 -5 -26 -7 -18 -8 -17 -8 7
-1 37 -21 47 -22 11 l-1 -28 -7 30 c-9 41 21 59 59 35z m338 -9 c3 -10 0 -12
-12 -8 -10 4 -16 1 -16 -8 0 -8 -4 -15 -9 -15 -4 0 -6 11 -3 25 5 28 32 31 40
6z m1799 -3 c-3 -8 -6 -5 -6 6 -1 11 2 17 5 13 3 -3 4 -12 1 -19z m90 9 c3 -4
-13 -7 -36 -7 -25 0 -40 4 -36 10 6 10 60 8 72 -3z m-1845 -22 c6 -28 6 -27
-17 -19 -13 5 -14 8 -3 15 10 7 11 9 0 9 -7 0 -10 5 -7 10 11 17 22 11 27 -15z
m-335 -22 c0 -27 0 -27 -10 -5 -5 12 -14 22 -18 22 -4 0 -10 -10 -12 -22 -4
-20 -4 -19 -6 5 -1 22 3 27 23 27 19 0 23 -5 23 -27z m400 10 c3 -9 -8 -10
-35 -4 -2 1 0 6 3 12 8 12 27 7 32 -8z m1117 -18 c-4 -8 -8 -15 -10 -15 -2 0
-4 7 -4 15 0 8 4 15 10 15 5 0 7 -7 4 -15z m674 -10 c3 -3 -7 -5 -21 -5 -15 0
-27 4 -27 9 0 10 38 7 48 -4z m-2278 -61 c0 -8 -4 -14 -9 -14 -12 0 -32 26
-25 33 10 9 34 -4 34 -19z m190 6 c-27 -21 -40 -25 -40 -12 0 5 12 13 28 19
39 16 40 15 12 -7z m-240 -34 c0 -39 -3 -45 -30 -56 -34 -14 -45 -14 -45 0 0
6 -6 14 -13 19 -10 6 -7 13 15 30 15 13 22 19 14 15 -9 -5 -12 -3 -7 4 4 7 18
12 32 12 13 0 24 5 24 10 0 6 2 10 5 10 3 0 5 -20 5 -44z m2325 34 c-3 -5 -11
-10 -16 -10 -6 0 -7 5 -4 10 3 6 11 10 16 10 6 0 7 -4 4 -10z m-455 -15 c0
-10 -10 -15 -29 -15 -16 0 -31 6 -35 15 -4 12 3 15 29 15 24 0 35 -5 35 -15z
m160 -6 c0 -5 -16 -9 -35 -9 -22 0 -35 5 -35 13 0 9 11 12 35 9 19 -2 35 -8
35 -13z m-1950 1 c0 -5 -4 -10 -10 -10 -5 0 -10 5 -10 10 0 6 5 10 10 10 6 0
10 -4 10 -10z m85 -24 c-19 -13 -12 -41 7 -30 6 4 5 10 -3 15 -11 7 -10 9 4 9
9 0 17 4 17 9 0 14 43 21 57 9 11 -9 9 -16 -13 -39 -15 -15 -40 -31 -57 -35
-29 -6 -39 -12 -75 -44 -10 -8 -24 -14 -32 -14 -8 1 -21 2 -28 3 -7 0 -11 5
-8 10 3 5 -2 8 -11 7 -10 0 -19 8 -21 18 -3 14 0 17 12 13 8 -3 18 -2 21 3 4
6 1 10 -6 10 -7 0 -9 3 -6 6 4 4 12 2 20 -4 7 -6 24 -9 38 -6 19 5 21 3 9 -5
-19 -14 -5 -14 21 -1 30 17 23 33 -11 27 -45 -9 -36 5 20 32 28 13 50 29 51
35 0 6 3 5 6 -2 3 -7 -3 -19 -12 -26z m318 -1 c-3 -9 -8 -14 -10 -11 -3 3 -2
9 2 15 9 16 15 13 8 -4z m57 -9 c0 -9 -7 -12 -20 -9 -11 3 -17 9 -14 14 8 14
34 10 34 -5z m-62 -22 c4 -4 -1 -4 -10 -1 -10 4 -18 2 -18 -3 0 -6 -7 -10 -16
-10 -8 0 -12 5 -9 10 3 6 -1 10 -9 10 -9 0 -16 4 -16 9 0 10 68 -3 78 -15z
m1378 16 c8 0 14 -4 14 -9 0 -12 -46 -20 -61 -11 -16 10 -1 33 18 26 8 -3 21
-6 29 -6z m94 -15 c0 -15 -26 -20 -54 -9 -28 11 -17 24 19 24 24 0 35 -5 35
-15z m80 0 c0 -10 -11 -15 -35 -15 -24 0 -35 5 -35 15 0 10 11 15 35 15 24 0
35 -5 35 -15z m100 -15 c0 -12 -27 -12 -55 0 -16 7 -13 9 18 9 20 1 37 -3 37
-9z m-2245 -10 c-3 -5 3 -10 14 -10 17 0 21 -6 20 -32 -1 -25 -3 -27 -6 -10
-3 13 -10 21 -16 19 -13 -4 -37 16 -37 32 0 6 7 11 16 11 8 0 12 -4 9 -10z
m1985 -15 c0 -10 -11 -15 -35 -15 -24 0 -35 5 -35 15 0 10 11 15 35 15 24 0
35 -5 35 -15z m80 -5 c0 -5 -16 -10 -35 -10 -19 0 -35 5 -35 10 0 6 16 10 35
10 19 0 35 -4 35 -10z m80 -3 c0 -9 -11 -12 -35 -9 -19 2 -35 8 -35 13 0 5 16
9 35 9 22 0 35 -5 35 -13z m197 -39 c-3 -8 -6 -5 -6 6 -1 11 2 17 5 13 3 -3 4
-12 1 -19z m-2342 2 c-3 -5 -11 -10 -16 -10 -6 0 -7 5 -4 10 3 6 11 10 16 10
6 0 7 -4 4 -10z m431 -5 c-8 -8 -20 -15 -27 -15 -7 0 -4 6 7 15 25 19 40 19
20 0z m-305 -8 c-7 -7 -14 -8 -21 -1 -6 6 -2 10 12 11 16 2 18 -1 9 -10z
m1849 -7 c0 -5 -11 -10 -25 -10 -14 0 -25 5 -25 10 0 6 11 10 25 10 14 0 25
-4 25 -10z m75 0 c4 -6 -5 -10 -19 -10 -14 0 -26 5 -26 10 0 6 9 10 19 10 11
0 23 -4 26 -10z m65 0 c9 -6 10 -10 3 -10 -6 0 -18 -3 -27 -6 -11 -4 -16 -1
-16 10 0 18 17 21 40 6z m-1547 -17 c-7 -2 -19 -2 -25 0 -7 3 -2 5 12 5 14 0
19 -2 13 -5z m1443 -21 c-4 -3 -27 -5 -51 -3 -35 1 -45 -2 -45 -14 0 -8 -4
-15 -10 -15 -13 0 -13 17 0 25 6 4 8 9 6 13 -2 4 21 5 51 4 30 -2 52 -7 49
-10z m51 -24 c-3 -8 -6 -5 -6 6 -1 11 2 17 5 13 3 -3 4 -12 1 -19z m187 -4 c9
-24 2 -27 -38 -20 -25 5 -34 11 -29 21 7 21 59 19 67 -1z m-1821 -21 c-7 -2
-19 -2 -25 0 -7 3 -2 5 12 5 14 0 19 -2 13 -5z m710 -10 c-7 -2 -21 -2 -30 0
-10 3 -4 5 12 5 17 0 24 -2 18 -5z m207 -3 c0 -5 -8 -10 -17 -10 -15 0 -16 2
-3 10 19 12 20 12 20 0z m-850 -10 c0 -5 -5 -10 -11 -10 -5 0 -7 5 -4 10 3 6
8 10 11 10 2 0 4 -4 4 -10z m860 -26 c0 -2 -13 -4 -30 -4 -16 0 -30 4 -30 8 0
5 14 7 30 4 17 -2 30 -6 30 -8z m-120 2 c0 -2 -7 -7 -16 -10 -8 -3 -12 -2 -9
4 6 10 25 14 25 6z m30 -16 c0 -5 -4 -10 -10 -10 -5 0 -10 5 -10 10 0 6 5 10
10 10 6 0 10 -4 10 -10z m30 -4 c0 -3 -4 -8 -10 -11 -5 -3 -10 -1 -10 4 0 6 5
11 10 11 6 0 10 -2 10 -4z m806 -10 c18 3 35 1 38 -5 4 -6 -1 -12 -11 -12 -10
-1 0 -5 22 -9 l40 -7 -52 -2 c-36 -1 -53 3 -54 12 0 10 -2 10 -6 0 -2 -7 -13
-13 -24 -13 -10 0 -19 -4 -19 -10 0 -5 -3 -9 -7 -8 -5 0 -24 -6 -42 -14 -35
-16 -61 -14 -61 4 0 5 5 6 12 2 8 -5 9 -2 4 12 -16 37 -12 49 16 49 15 1 30 4
33 7 3 3 23 2 43 -3 20 -5 51 -6 68 -3z m-587 -88 c0 -20 5 -38 10 -40 5 -2 5
-21 1 -43 -4 -23 -8 -30 -9 -17 0 13 -5 21 -10 17 -5 -3 -12 -1 -16 5 -3 5
-11 10 -17 10 -7 0 -9 -18 -5 -52 3 -29 2 -69 -2 -88 -9 -34 -9 -33 -9 15 0
28 -2 69 -5 93 -3 29 -1 42 8 42 16 0 25 35 18 71 -3 18 -1 29 6 29 6 0 12 12
12 28 l1 27 8 -30 c4 -16 8 -46 9 -67z m401 82 c0 -5 -2 -10 -4 -10 -3 0 -8 5
-11 10 -3 6 -1 10 4 10 6 0 11 -4 11 -10z m-655 -20 c3 -5 1 -10 -4 -10 -6 0
-11 5 -11 10 0 6 2 10 4 10 3 0 8 -4 11 -10z m-295 -43 c-1 -12 -10 -56 -20
-97 -11 -41 -18 -63 -16 -47 2 17 -1 27 -9 27 -10 0 -10 14 2 63 8 34 17 68
19 75 6 20 24 4 24 -21z m245 3 c25 -8 21 -9 -31 -8 -33 1 -65 -1 -70 -5 -14
-8 -38 9 -30 21 7 12 84 7 131 -8z m220 -30 c-3 -5 4 -11 15 -15 11 -3 20 -11
20 -16 0 -14 -20 -11 -21 4 0 6 -5 -3 -10 -21 -13 -45 -24 -34 -27 28 -2 46 0
51 13 40 8 -7 13 -16 10 -20z m-311 -24 c-5 -14 -9 -15 -15 -5 -5 8 -3 17 4
21 15 9 19 4 11 -16z m1066 5 c6 -13 6 -22 1 -26 -9 -5 -31 24 -31 39 0 14 20
4 30 -13z m-1120 -18 c0 -7 -7 -13 -15 -13 -8 0 -15 6 -15 13 0 8 7 14 15 14
8 0 15 -6 15 -14z m1000 3 c0 -3 -4 -8 -10 -11 -5 -3 -10 -1 -10 4 0 6 5 11
10 11 6 0 10 -2 10 -4z m77 -2 c-3 -3 -12 -4 -19 -1 -8 3 -5 6 6 6 11 1 17 -2
13 -5z m-3 -81 c6 -18 4 -20 -14 -16 -11 3 -20 0 -20 -6 0 -6 6 -11 14 -11 7
0 19 -7 26 -15 9 -10 9 -15 1 -15 -6 0 -11 5 -11 10 0 6 -7 10 -15 10 -8 0
-15 -6 -15 -12 0 -10 -3 -9 -9 1 -5 7 -14 10 -21 6 -6 -4 -32 -8 -56 -9 -36
-1 -44 1 -44 16 0 15 8 17 60 14 51 -3 59 -2 49 10 -7 8 -8 18 -4 22 4 4 10 2
12 -5 8 -22 34 -2 27 21 -4 14 -3 18 4 11 5 -5 13 -20 16 -32z m-1227 -5 c-3
-8 -6 -5 -6 6 -1 11 2 17 5 13 3 -3 4 -12 1 -19z m-220 -35 c1 -24 -2 -32 -8
-22 -5 8 -9 9 -9 4 0 -6 5 -16 10 -21 14 -14 -6 -70 -37 -107 -12 -16 -23 -37
-23 -48 0 -11 -4 -17 -10 -14 -6 3 -7 -1 -4 -9 3 -9 1 -16 -5 -16 -6 0 -17
-12 -25 -27 -18 -33 -20 -26 -6 14 9 26 9 26 -5 9 -13 -17 -14 -15 -8 20 7 42
89 214 103 214 4 0 10 9 13 20 8 30 13 24 14 -17z m840 -10 c-3 -10 -5 -4 -5
12 0 17 2 24 5 18 2 -7 2 -21 0 -30z m-630 -5 c-3 -8 -6 -5 -6 6 -1 11 2 17 5
13 3 -3 4 -12 1 -19z m20 -10 c-3 -7 -5 -2 -5 12 0 14 2 19 5 13 2 -7 2 -19 0
-25z m998 -16 c-3 -3 -11 0 -18 7 -9 10 -8 11 6 5 10 -3 15 -9 12 -12z m-1025
-13 c0 -5 -5 -7 -10 -4 -7 4 -9 -3 -5 -22 l5 -28 -14 30 c-11 22 -15 25 -16
11 0 -11 -3 -17 -6 -13 -4 3 -4 13 -1 22 7 17 47 21 47 4z m16 -25 c-4 -14 -9
-24 -12 -21 -3 2 -2 17 2 31 3 15 9 25 11 22 3 -3 2 -17 -1 -32z m1049 16 c3
-5 2 -10 -4 -10 -5 0 -13 5 -16 10 -3 6 -2 10 4 10 5 0 13 -4 16 -10z m-151
-50 c-6 -6 -10 2 -11 23 -2 30 -1 31 9 9 7 -14 8 -26 2 -32z m130 25 c3 -8 1
-15 -3 -15 -5 0 -11 7 -15 15 -3 8 -1 15 3 15 5 0 11 -7 15 -15z m-1394 -15
c0 -5 -7 -7 -15 -4 -8 4 -15 8 -15 10 0 2 7 4 15 4 8 0 15 -4 15 -10z m295
-22 c-5 -25 -4 -29 4 -18 10 13 11 13 11 0 0 -8 -5 -22 -10 -30 -9 -13 -10
-13 -10 0 0 13 -1 13 -11 0 -8 -12 -9 -11 -5 5 3 11 8 32 12 48 9 38 17 34 9
-5z m22 10 c-3 -8 -6 -5 -6 6 -1 11 2 17 5 13 3 -3 4 -12 1 -19z m30 -40 c-3
-8 -6 -5 -6 6 -1 11 2 17 5 13 3 -3 4 -12 1 -19z m920 0 c-3 -8 -6 -5 -6 6 -1
11 2 17 5 13 3 -3 4 -12 1 -19z m-43 -15 c5 -18 40 -201 49 -256 3 -17 0 -27
-8 -27 -8 0 -22 49 -39 138 -14 75 -26 143 -26 150 0 18 18 15 24 -5z m-860
-28 c-4 -8 -8 -15 -10 -15 -2 0 -4 7 -4 15 0 8 4 15 10 15 5 0 7 -7 4 -15z
m-108 -102 c-27 -95 -54 -173 -55 -160 -1 5 15 63 34 129 19 66 32 126 28 132
-4 7 -2 7 7 -1 9 -9 7 -29 -14 -100z m727 -45 c4 -27 3 -48 -2 -48 -14 0 -21
40 -20 110 1 59 2 61 9 25 4 -22 10 -61 13 -87z"/>
<path d="M1212 1413 c-35 -91 -61 -174 -59 -185 3 -10 1 -16 -3 -13 -5 3 -14
-3 -20 -14 -5 -11 -7 -22 -3 -24 5 -3 77 -6 162 -6 122 -2 152 1 149 11 -106
279 -153 398 -158 398 -3 0 -33 -75 -68 -167z m-2 -183 c0 -5 -9 -10 -20 -10
-11 0 -20 5 -20 10 0 6 9 10 20 10 11 0 20 -4 20 -10z"/>
<path d="M1082 790 c0 -14 2 -19 5 -12 2 6 2 18 0 25 -3 6 -5 1 -5 -13z"/>
<path d="M1062 700 c0 -14 2 -19 5 -12 2 6 2 18 0 25 -3 6 -5 1 -5 -13z"/>
<path d="M1041 604 c0 -11 3 -14 6 -6 3 7 2 16 -1 19 -3 4 -6 -2 -5 -13z"/>
<path d="M1031 554 c0 -11 3 -14 6 -6 3 7 2 16 -1 19 -3 4 -6 -2 -5 -13z"/>
<path d="M2058 763 c7 -3 16 -2 19 1 4 3 -2 6 -13 5 -11 0 -14 -3 -6 -6z"/>
<path d="M1011 704 c0 -11 3 -14 6 -6 3 7 2 16 -1 19 -3 4 -6 -2 -5 -13z"/>
<path d="M995 640 c-4 -17 -5 -34 -2 -36 2 -3 7 10 11 27 3 18 4 34 2 36 -2 3
-7 -10 -11 -27z"/>
</g>
</svg>
